<svg width="15" height="13" viewBox="0 0 15 13" fill="none" xmlns="http://www.w3.org/2000/svg">
<path d="M3.33333 3.25H11.6667V9.75H3.33333V3.25ZM13.75 6.5C13.75 7.39747 14.3096 8.125 15 8.125V11.375C15 12.2725 14.4404 13 13.75 13H1.25C0.559635 13 0 12.2725 0 11.375V8.125C0.690365 8.125 1.25 7.39747 1.25 6.5C1.25 5.60253 0.690365 4.875 0 4.875V1.625C0 0.727526 0.559635 0 1.25 0H13.75C14.4404 0 15 0.727526 15 1.625V4.875C14.3096 4.875 13.75 5.60253 13.75 6.5ZM12.5 2.97917C12.5 2.53043 12.2202 2.16667 11.875 2.16667H3.125C2.77982 2.16667 2.5 2.53043 2.5 2.97917V10.0208C2.5 10.4696 2.77982 10.8333 3.125 10.8333H11.875C12.2202 10.8333 12.5 10.4696 12.5 10.0208V2.97917Z" fill="#333333"/>
</svg>
