<svg width="16" height="15" viewBox="0 0 16 15" fill="none" xmlns="http://www.w3.org/2000/svg">
<path d="M5.62891 6.09375C5.62891 5.57607 5.20908 5.15625 4.69141 5.15625H4.22266C3.18701 5.15625 2.34766 5.99561 2.34766 7.03125V8.4375C2.34766 9.47314 3.18701 10.3125 4.22266 10.3125H4.69141C5.20908 10.3125 5.62891 9.89268 5.62891 9.375V6.09375ZM10.7852 10.3125C11.8208 10.3125 12.6602 9.47314 12.6602 8.4375V7.03125C12.6602 5.99561 11.8208 5.15625 10.7852 5.15625H10.3164C9.79873 5.15625 9.37891 5.57607 9.37891 6.09375V9.375C9.37891 9.89268 9.79873 10.3125 10.3164 10.3125H10.7852ZM7.50391 0C3.31973 0 0.138086 3.48135 0.00390625 7.5V7.96875C0.00390625 8.22773 0.213672 8.4375 0.472656 8.4375H0.941406C1.20039 8.4375 1.41016 8.22773 1.41016 7.96875V7.5C1.41016 4.13994 4.14385 1.40625 7.50391 1.40625C10.864 1.40625 13.5977 4.13994 13.5977 7.5H13.5941C13.5965 7.57119 13.5977 12.3551 13.5977 12.3551C13.5977 13.0392 13.0431 13.5938 12.359 13.5938H9.37891C9.37891 12.8171 8.74932 12.1875 7.97266 12.1875H7.03516C6.2585 12.1875 5.62891 12.8171 5.62891 13.5938C5.62891 14.3704 6.2585 15 7.03516 15H12.359C13.8197 15 15.0039 13.8158 15.0039 12.3551V7.5C14.8697 3.48135 11.6881 0 7.50391 0Z" fill="#333333"/>
</svg>
