<svg width="21" height="20" viewBox="0 0 21 20" fill="none" xmlns="http://www.w3.org/2000/svg">
<path d="M5.55946 17.5C4.67057 17.5 3.78168 16.625 3.33724 16.25C1.11502 14.5 0.448351 13.875 0.00390625 13.5V18.75C0.00390625 19.4402 0.501476 20 1.11502 20H10.0039C10.6174 20 11.115 19.4402 11.115 18.75V13.5C10.6706 13.875 10.0039 14.5 7.78168 16.25C7.33724 16.625 6.44835 17.5 5.55946 17.5ZM10.0039 10H1.11502C0.501476 10 0.00390625 10.5598 0.00390625 11.25V11.875C0.892795 12.625 0.781684 12.625 4.00391 15.25C4.33724 15.5 5.00391 16.25 5.55946 16.25C6.11502 16.25 6.78168 15.5 7.11502 15.375C10.3372 12.75 10.2261 12.75 11.115 12V11.25C11.115 10.5598 10.6174 10 10.0039 10ZM18.8928 6.25H7.78168C7.16814 6.25 6.67057 6.80977 6.67057 7.5V8.75H10.0039C11.157 8.75 12.1077 9.74297 12.2161 11.0086L12.2261 11V16.25H18.8928C19.5063 16.25 20.0039 15.6902 20.0039 15V7.5C20.0039 6.80977 19.5063 6.25 18.8928 6.25ZM17.7817 11.25H15.5595V8.75H17.7817V11.25ZM5.55946 7.5C5.55946 6.12148 6.55634 5 7.78168 5H15.5595V1.25C15.5595 0.559766 15.0619 0 14.4484 0H3.33724C2.7237 0 2.22613 0.559766 2.22613 1.25V8.75H5.55946V7.5Z" fill="#333333"/>
</svg>
