<svg width="16" height="15" viewBox="0 0 16 15" fill="none" xmlns="http://www.w3.org/2000/svg">
<path d="M15.0039 7.03125C15.0039 6.33896 14.6667 5.74102 14.1706 5.41641V0.937793C14.1706 0.681445 13.9888 0 13.3372 0C13.1518 0 12.9677 0.0697266 12.8169 0.205664L10.6026 2.19873C9.49036 3.19893 8.09401 3.75 6.67057 3.75H1.67057C0.75 3.75 0.00390625 4.58936 0.00390625 5.625V8.4375C0.00390625 9.47314 0.75 10.3125 1.67057 10.3125H2.54818C2.51198 10.6195 2.49141 10.9318 2.49141 11.25C2.49141 12.4151 2.73255 13.5161 3.15703 14.5002C3.29219 14.8134 3.58724 15 3.89661 15H5.83099C6.50937 15 6.91667 14.1258 6.50547 13.5188C6.07839 12.8883 5.82448 12.102 5.82448 11.25C5.82448 10.9245 5.86667 10.6116 5.93932 10.3125H6.67057C8.09401 10.3125 9.49037 10.8636 10.6023 11.8638L12.8167 13.8568C12.9644 13.9898 13.1478 14.0623 13.337 14.0625C13.9859 14.0625 14.1703 13.3951 14.1703 13.125V8.64639C14.6667 8.32148 15.0039 7.72354 15.0039 7.03125ZM12.5039 11.1744L11.6432 10.3998C10.237 9.13418 8.47057 8.4375 6.67057 8.4375V5.625C8.47057 5.625 10.237 4.92832 11.6432 3.6627L12.5039 2.88809V11.1744Z" fill="#333333"/>
</svg>
