<svg width="21" height="20" viewBox="0 0 21 20" fill="none" xmlns="http://www.w3.org/2000/svg">
<path d="M10.0061 4.87225C7.16844 4.87225 4.87953 7.16166 4.87953 10C4.87953 12.8383 7.16844 15.1277 10.0061 15.1277C12.8438 15.1277 15.1327 12.8383 15.1327 10C15.1327 7.16166 12.8438 4.87225 10.0061 4.87225ZM10.0061 13.3337C8.17234 13.3337 6.67318 11.8387 6.67318 10C6.67318 8.16133 8.16788 6.6663 10.0061 6.6663C11.8444 6.6663 13.3391 8.16133 13.3391 10C13.3391 11.8387 11.8399 13.3337 10.0061 13.3337ZM16.5382 4.6625C16.5382 5.32746 16.0028 5.85853 15.3424 5.85853C14.6776 5.85853 14.1467 5.32299 14.1467 4.6625C14.1467 4.00201 14.6821 3.46647 15.3424 3.46647C16.0028 3.46647 16.5382 4.00201 16.5382 4.6625ZM19.9336 5.87638C19.8578 4.27424 19.4919 2.85507 18.3185 1.68582C17.1495 0.516568 15.7306 0.150619 14.1288 0.070289C12.478 -0.0234297 7.52984 -0.0234297 5.87898 0.070289C4.28165 0.146156 2.8628 0.512105 1.68935 1.68136C0.515897 2.85061 0.154492 4.26978 0.0741795 5.87192C-0.0195182 7.52315 -0.0195182 12.4724 0.0741795 14.1236C0.15003 15.7258 0.515897 17.1449 1.68935 18.3142C2.8628 19.4834 4.27719 19.8494 5.87898 19.9297C7.52984 20.0234 12.478 20.0234 14.1288 19.9297C15.7306 19.8538 17.1495 19.4879 18.3185 18.3142C19.4875 17.1449 19.8533 15.7258 19.9336 14.1236C20.0273 12.4724 20.0273 7.52761 19.9336 5.87638ZM17.8009 15.8953C17.4529 16.7701 16.7791 17.4439 15.9002 17.7965C14.5839 18.3186 11.4607 18.1981 10.0061 18.1981C8.55159 18.1981 5.42387 18.3142 4.1121 17.7965C3.23759 17.4484 2.56386 16.7745 2.21138 15.8953C1.68935 14.5788 1.80982 11.4549 1.80982 10C1.80982 8.54513 1.69381 5.41671 2.21138 4.10465C2.5594 3.22995 3.23313 2.55606 4.1121 2.2035C5.42833 1.68136 8.55159 1.80185 10.0061 1.80185C11.4607 1.80185 14.5884 1.68582 15.9002 2.2035C16.7747 2.5516 17.4484 3.22548 17.8009 4.10465C18.3229 5.42118 18.2025 8.54513 18.2025 10C18.2025 11.4549 18.3229 14.5833 17.8009 15.8953Z" fill="#333333"/>
</svg>
