<svg width="16" height="15" viewBox="0 0 16 15" fill="none" xmlns="http://www.w3.org/2000/svg">
<path d="M14.7999 12.9686L11.8787 10.0479C11.7469 9.91611 11.5682 9.84287 11.3807 9.84287H10.9032C11.7118 8.80869 12.1922 7.5082 12.1922 6.09316C12.1922 2.72725 9.46441 0 6.09821 0C2.73202 0 0.00390625 2.72725 0.00390625 6.09316C0.00390625 9.45908 2.73172 12.1863 6.09821 12.1863C7.51324 12.1863 8.81431 11.7059 9.84849 10.8973V11.3748C9.84849 11.5623 9.92173 11.741 10.0536 11.8729L12.9747 14.7935C13.2501 15.0688 13.6954 15.0688 13.9679 14.7935L14.797 13.9644C15.0724 13.689 15.0724 13.2439 14.7999 12.9686ZM6.09821 10.3113C3.76795 10.3113 1.87948 8.42637 1.87948 6.09316C1.87948 3.76318 3.76473 1.875 6.09821 1.875C8.42847 1.875 10.3169 3.75996 10.3169 6.09316C10.3169 8.42314 8.4317 10.3113 6.09821 10.3113ZM6.0988 3.28125C4.90408 3.28125 3.93553 4.24951 3.93553 5.44424C3.93553 6.40986 5.34939 8.17031 5.89108 8.80928C5.91649 8.83968 5.94826 8.86413 5.98415 8.88091C6.02004 8.89769 6.05918 8.90639 6.0988 8.90639C6.13842 8.90639 6.17755 8.89769 6.21344 8.88091C6.24933 8.86413 6.28111 8.83968 6.30651 8.80928C6.84821 8.17031 8.26207 6.41016 8.26207 5.44424C8.26207 4.24951 7.29352 3.28125 6.0988 3.28125ZM6.0988 6.09375C5.71032 6.09375 5.39568 5.77881 5.39568 5.39062C5.39568 5.00215 5.71062 4.6875 6.0988 4.6875C6.48698 4.6875 6.80192 5.00215 6.80192 5.39062C6.80192 5.77881 6.48698 6.09375 6.0988 6.09375Z" fill="#333333"/>
</svg>
