<svg width="15" height="15" viewBox="0 0 15 15" fill="none" xmlns="http://www.w3.org/2000/svg">
<path d="M14.625 10.3125H14.25V7.14551C14.25 6.77344 14.1305 6.41602 13.9195 6.15234L11.5781 3.22559C11.3672 2.96191 11.0813 2.8125 10.7836 2.8125H9.75V1.40625C9.75 0.629883 9.24609 0 8.625 0H1.125C0.503906 0 0 0.629883 0 1.40625V10.7812C0 11.5576 0.503906 12.1875 1.125 12.1875H1.5C1.5 13.7402 2.50781 15 3.75 15C4.99219 15 6 13.7402 6 12.1875H9C9 13.7402 10.0078 15 11.25 15C12.4922 15 13.5 13.7402 13.5 12.1875H14.625C14.8313 12.1875 15 11.9766 15 11.7188V10.7812C15 10.5234 14.8313 10.3125 14.625 10.3125ZM3.75 13.5938C3.12891 13.5938 2.625 12.9639 2.625 12.1875C2.625 11.4111 3.12891 10.7812 3.75 10.7812C4.37109 10.7812 4.875 11.4111 4.875 12.1875C4.875 12.9639 4.37109 13.5938 3.75 13.5938ZM11.25 13.5938C10.6289 13.5938 10.125 12.9639 10.125 12.1875C10.125 11.4111 10.6289 10.7812 11.25 10.7812C11.8711 10.7812 12.375 11.4111 12.375 12.1875C12.375 12.9639 11.8711 13.5938 11.25 13.5938ZM13.125 7.5H9.75V4.21875H10.7836L13.125 7.14551V7.5Z" fill="#333333"/>
</svg>
