<svg width="15" height="15" viewBox="0 0 15 15" fill="none" xmlns="http://www.w3.org/2000/svg">
<path d="M13.75 0H1.25C0.559896 0 0 0.719866 0 1.60714V13.3929C0 14.2801 0.559896 15 1.25 15H13.75C14.4401 15 15 14.2801 15 13.3929V1.60714C15 0.719866 14.4401 0 13.75 0ZM4.58333 3.21429C5.5026 3.21429 6.25 4.17522 6.25 5.35714C6.25 6.53906 5.5026 7.5 4.58333 7.5C3.66406 7.5 2.91667 6.53906 2.91667 5.35714C2.91667 4.17522 3.66406 3.21429 4.58333 3.21429ZM7.5 11.1429C7.5 11.4978 7.23958 11.7857 6.91667 11.7857H2.25C1.92708 11.7857 1.66667 11.4978 1.66667 11.1429V10.5C1.66667 9.43527 2.45052 8.57143 3.41667 8.57143H3.54687C3.86719 8.74219 4.21615 8.83929 4.58333 8.83929C4.95052 8.83929 5.30208 8.74219 5.61979 8.57143H5.75C6.71615 8.57143 7.5 9.43527 7.5 10.5V11.1429ZM13.3333 9.375C13.3333 9.52232 13.2396 9.64286 13.125 9.64286H9.375C9.26042 9.64286 9.16667 9.52232 9.16667 9.375V8.83929C9.16667 8.69196 9.26042 8.57143 9.375 8.57143H13.125C13.2396 8.57143 13.3333 8.69196 13.3333 8.83929V9.375ZM13.3333 7.23214C13.3333 7.37946 13.2396 7.5 13.125 7.5H9.375C9.26042 7.5 9.16667 7.37946 9.16667 7.23214V6.69643C9.16667 6.54911 9.26042 6.42857 9.375 6.42857H13.125C13.2396 6.42857 13.3333 6.54911 13.3333 6.69643V7.23214ZM13.3333 5.08929C13.3333 5.23661 13.2396 5.35714 13.125 5.35714H9.375C9.26042 5.35714 9.16667 5.23661 9.16667 5.08929V4.55357C9.16667 4.40625 9.26042 4.28571 9.375 4.28571H13.125C13.2396 4.28571 13.3333 4.40625 13.3333 4.55357V5.08929Z" fill="#333333"/>
</svg>
