<svg width="20" height="26" viewBox="0 0 20 26" fill="none" xmlns="http://www.w3.org/2000/svg">
<path d="M19.2857 2.18421H13.9286L13.5089 1.27113C13.42 1.07592 13.2831 0.911714 13.1135 0.796985C12.944 0.682257 12.7485 0.621556 12.5491 0.621713H7.44643C7.24749 0.620876 7.05236 0.68135 6.8834 0.796207C6.71443 0.911063 6.57846 1.07566 6.49107 1.27113L6.07143 2.18421H0.714286C0.524845 2.18421 0.343164 2.26652 0.209209 2.41303C0.0752549 2.55955 0 2.75826 0 2.96546L0 4.52796C0 4.73516 0.0752549 4.93388 0.209209 5.08039C0.343164 5.2269 0.524845 5.30921 0.714286 5.30921H19.2857C19.4752 5.30921 19.6568 5.2269 19.7908 5.08039C19.9247 4.93388 20 4.73516 20 4.52796V2.96546C20 2.75826 19.9247 2.55955 19.7908 2.41303C19.6568 2.26652 19.4752 2.18421 19.2857 2.18421ZM2.375 23.4244C2.40907 24.0195 2.64918 24.5779 3.04645 24.9861C3.44373 25.3943 3.9683 25.6216 4.51339 25.6217H15.4866C16.0317 25.6216 16.5563 25.3943 16.9535 24.9861C17.3508 24.5779 17.5909 24.0195 17.625 23.4244L18.5714 6.87171H1.42857L2.375 23.4244Z" fill="#797979"/>
</svg>
