<svg width="21" height="20" viewBox="0 0 21 20" fill="none" xmlns="http://www.w3.org/2000/svg">
<path d="M17.0084 2.90625C15.1378 1.03125 12.6468 0 9.99944 0C4.53516 0 0.0887277 4.44643 0.0887277 9.91071C0.0887277 11.6562 0.544085 13.3616 1.41016 14.8661L0.00390625 20L5.25837 18.6205C6.7048 19.4107 8.33426 19.8259 9.99498 19.8259H9.99944C15.4593 19.8259 20.0039 15.3795 20.0039 9.91518C20.0039 7.26786 18.8789 4.78125 17.0084 2.90625ZM9.99944 18.1563C8.5173 18.1563 7.06641 17.7589 5.80301 17.0089L5.50391 16.8304L2.38784 17.6473L3.21819 14.6071L3.02176 14.2946C2.19587 12.9821 1.76283 11.4688 1.76283 9.91071C1.76283 5.37054 5.45926 1.67411 10.0039 1.67411C12.2048 1.67411 14.2718 2.53125 15.8253 4.08929C17.3789 5.64732 18.3343 7.71429 18.3298 9.91518C18.3298 14.4598 14.5396 18.1563 9.99944 18.1563ZM14.5173 11.9866C14.2718 11.8616 13.053 11.2634 12.8253 11.183C12.5977 11.0982 12.4325 11.058 12.2673 11.308C12.1021 11.558 11.6289 12.1116 11.4816 12.2813C11.3387 12.4464 11.1914 12.4688 10.9459 12.3438C9.49051 11.6161 8.53516 11.0446 7.57534 9.39732C7.32087 8.95982 7.8298 8.99107 8.30301 8.04464C8.38337 7.87946 8.34319 7.73661 8.28069 7.61161C8.21819 7.48661 7.72266 6.26786 7.5173 5.77232C7.31641 5.29018 7.11105 5.35714 6.95926 5.34821C6.81641 5.33929 6.65123 5.33929 6.48605 5.33929C6.32087 5.33929 6.05301 5.40179 5.82533 5.64732C5.59766 5.89732 4.95926 6.49554 4.95926 7.71429C4.95926 8.93304 5.84766 10.1116 5.96819 10.2768C6.09319 10.442 7.71373 12.942 10.2003 14.0179C11.7718 14.6964 12.3878 14.7545 13.1735 14.6384C13.6512 14.567 14.6378 14.0402 14.8432 13.4598C15.0485 12.8795 15.0485 12.3839 14.986 12.2813C14.928 12.1696 14.7628 12.1071 14.5173 11.9866Z" fill="#333333"/>
</svg>
